<?xml version="1.0" encoding="utf-8"?>
<!-- Generator: Adobe Illustrator 21.1.0, SVG Export Plug-In . SVG Version: 6.00 Build 0)  -->
<svg version="1.1"
	 id="Layer_1" xmlns:cc="http://creativecommons.org/ns#" xmlns:dc="http://purl.org/dc/elements/1.1/" xmlns:rdf="http://www.w3.org/1999/02/22-rdf-syntax-ns#"
	 xmlns="http://www.w3.org/2000/svg" xmlns:xlink="http://www.w3.org/1999/xlink" x="0px" y="0px" viewBox="0 0 24 24"
	 style="enable-background:new 0 0 24 24;" xml:space="preserve">
<style type="text/css">
	.st0{fill:#663333;}
	.st1{fill:#ECF0F1;}
	.st2{fill:#BDC3C7;}
	.st3{fill:#993333;}
	.st4{fill:#FFFFFF;}
</style>
<g transform="translate(0 -1028.4)">
	<path class="st0" d="M3,1036.4v2v1v3v1v5v1c0,1.1,0.9,2,2,2h14c1.1,0,2-0.9,2-2v-1v-5v-4v-3H3z"/>
	<path class="st1" d="M3,1035.4v2v1v3v1v5v1c0,1.1,0.9,2,2,2h14c1.1,0,2-0.9,2-2v-1v-5v-4v-3H3z"/>
	<path class="st2" d="M3,1034.4v2v1v3v1v5v1c0,1.1,0.9,2,2,2h14c1.1,0,2-0.9,2-2v-1v-5v-4v-3H3z"/>
	<path class="st1" d="M3,1033.4v2v1v3v1v5v1c0,1.1,0.9,2,2,2h14c1.1,0,2-0.9,2-2v-1v-5v-4v-3H3z"/>
	<path class="st0" d="M5,1029.4c-1.1,0-2,0.9-2,2v1v4v2v1v3v1v5v1c0,1.1,0.9,2,2,2h2v-1H5.5c-0.8,0-1.5-0.7-1.5-1.5s0.7-1.5,1.5-1.5
		H18h1c1.1,0,2-0.9,2-2v-1v-5v-4v-3v-1c0-1.1-0.9-2-2-2h-4H5z"/>
	<path class="st3" d="M8,1029.4v18h1h9h1c1.1,0,2-0.9,2-2v-1v-5v-4v-3v-1c0-1.1-0.9-2-2-2h-4H9H8z"/>
</g>
<g>
	<g>
		<polygon class="st4" points="16.7,13.6 16.7,13.4 7.8,13.9 7.8,14.1 7.9,14.1 7.9,14.3 7.8,14.3 7.8,14.5 7.9,14.5 7.9,14.7 
			7.9,14.7 7.8,14.7 7.8,14.9 8.1,14.9 8.1,14.8 8.3,14.8 8.3,14.9 8.5,14.9 8.5,14.8 8.8,14.8 8.8,14.9 9,14.9 9,14.8 9.2,14.8 
			9.2,14.9 9.4,14.9 9.4,14.8 9.7,14.8 9.7,14.9 9.9,14.9 9.9,14.8 10.1,14.8 10.1,14.9 10.3,14.9 10.3,14.8 10.6,14.8 10.6,14.9 
			10.8,14.9 10.8,14.8 11,14.8 11,14.9 11.3,14.9 11.3,14.8 11.5,14.8 11.5,14.9 11.7,14.9 11.7,14.8 11.9,14.8 11.9,14.9 
			12.2,14.9 12.2,14.8 12.4,14.8 12.4,14.9 12.6,14.9 12.6,14.8 12.8,14.8 12.8,14.9 13.1,14.9 13.1,14.8 13.3,14.8 13.3,14.9 
			13.5,14.9 13.5,14.8 13.7,14.8 13.7,14.9 14,14.9 14,14.8 14.2,14.8 14.2,14.9 14.4,14.9 14.4,14.8 14.6,14.8 14.6,14.9 
			14.9,14.9 14.9,14.8 15.1,14.8 15.1,14.9 15.3,14.9 15.3,14.8 15.5,14.8 15.5,14.9 15.8,14.9 15.8,14.8 16,14.8 16,14.9 
			16.2,14.9 16.2,14.8 16.5,14.8 16.5,14.9 16.7,14.9 16.7,14.7 16.6,14.7 16.6,14.5 16.7,14.5 16.7,14.3 16.6,14.3 16.6,14 
			16.7,14 16.7,13.8 16.6,13.8 16.6,13.6 		"/>
		<path class="st4" d="M16.7,6.3V6.1h-0.2v0.1h-0.1h-0.2V6.1h-0.2v0.1h-0.2V6.1h-0.2v0.1h-0.2V6.1h-0.2v0.1h-0.2V6.1h-0.2v0.1h-0.2
			V6.1h-0.2v0.1H14V6.1h-0.2v0.1h-0.2V6.1h-0.2v0.1h-0.2V6.1h-0.2v0.1h-0.2V6.1h-0.2v0.1h-0.2V6.1H12v0.1h-0.2V6.1h-0.2v0.1h-0.2
			V6.1h-0.2v0.1h-0.2V6.1h-0.2v0.1h-0.2V6.1h-0.2v0.1H10V6.1H9.7v0.1H9.5V6.1H9.3v0.1H9.1V6.1H8.8v0.1H8.6V6.1H8.4v0.1H8.2V6.1H7.8
			v0.3h0.1v0.2H7.8v0.2h0.1v0.2H7.8v0.2h0.1v0.2H7.8v0.2h0.1V8H7.8v0.2h0.1v0.2H7.8v0.2h0.1v0.2H7.8v0.2h0.1v0.2H7.8v0.2h0.1v0.2
			H7.8V10h0.1v0.2H7.8v0.2h0.1v0.2H7.8v0.2h0.1v0.2H7.8v0.2h0.1v0.2H7.8v0.2h0.1V12H7.8v0.2h0.1v0.2H7.8v0l8.9-0.5v0h-0.1v-0.2h0.1
			v-0.2h-0.1v-0.2h0.1v-0.2h-0.1v-0.2h0.1v-0.2h-0.1v-0.2h0.1v-0.2h-0.1V10h0.1V9.7h-0.1V9.5h0.1V9.3h-0.1V9.1h0.1V8.8h-0.1V8.6h0.1
			V8.4h-0.1V8.2h0.1V7.9h-0.1V7.7h0.1V7.5h-0.1V7.2h0.1V7h-0.1V6.8h0.1V6.6h-0.1V6.3H16.7z M10.1,11.4c-0.2,0.2-0.6,0.2-0.8,0
			c-0.2-0.2-0.2-0.6,0-0.8c0.2-0.2,0.6-0.2,0.8,0C10.4,10.8,10.4,11.1,10.1,11.4z M15.1,11.4c-0.2,0.2-0.6,0.2-0.8,0
			c-0.2-0.2-0.2-0.6,0-0.8c0.2-0.2,0.6-0.2,0.8,0C15.3,10.8,15.3,11.1,15.1,11.4z"/>
	</g>
</g>
</svg>
